<?xml version="1.0" encoding="utf-8"?>
<!DOCTYPE svg PUBLIC "-//W3C//DTD SVG 1.0//EN" "http://www.w3.org/TR/2001/REC-SVG-20010904/DTD/svg10.dtd">
<svg version="1.0" id="Layer_1" xmlns="http://www.w3.org/2000/svg" xmlns:xlink="http://www.w3.org/1999/xlink" x="0px" y="0px"
	 xml:space="preserve">
                <polygon points="
                                0,0
                                296, 0
                                270,300
                                148,336,
                                26, 300
                                " style="fill:#8B008B" />
                               
                <polygon points="
                                148,30
                                271, 30
                                250,275
                                148,306
                                " style="fill:#C57FC5" />
                               
                                <polygon points="
                                191,60
                                226, 60
                                210,245
                                176,255
                                " style="fill:white" />
                               
                                <polygon points="
                                148,85
                                250, 85
                                247,120
                                148,120
                                " style="fill:white" />
                                                               
                                <polygon points="
                                148,175
                                243, 175
                                240,210
                                148,210
                                " style="fill:white" />
                               
                               
                                <polygon points="
                                70,60
                                105, 60
                                121,255
                                87,245
                                " style="fill:#EBEBEB" />
                               
                                <polygon points="
                                45,85
                                148, 85
                                148,120
                                48,120
                                " style="fill:#EBEBEB" />
                               
                                <polygon points="
                                53,175
                                148, 175
                                148,210
                                56,210
                                " style="fill:#EBEBEB" />
</svg>
